# xmcd
#
# Track frame offsets: 
#        150
#        10281
#        24238
#        44165
#        63935
#        84716
#        103920
#        121229
#        133444
#        150095
#        163152
#        175142
#
# Disc length: 2567 seconds
#
# Revision: 0
# Processed by: cddbd v1.5.2PL0 Copyright (c) Steve Scherf et al.
# Submitted via: ExactAudioCopy v0.99pb4
#
DISCID=9c0a050c
DTITLE=Luther Kent - The Bobby Bland Songbook
DYEAR=2009
DGENRE=Blues
TTITLE0=Who Will The Next Fool Be
TTITLE1=A´int That Lovin´You
TTITLE2=I´ll Take Care Of You
TTITLE3=I Pity The Fool
TTITLE4=Stormy Monday
TTITLE5=Cry , Cry , Cry
TTITLE6=St. James Infirmary
TTITLE7=Don´t Cry No More
TTITLE8=Blind Man
TTITLE9=That´s The Way Love Is
TTITLE10=I´ve Just Got To Forget You
TTITLE11=I Wouldn´t Treat a Dog
EXTD=
EXTT0=
EXTT1=
EXTT2=
EXTT3=
EXTT4=
EXTT5=
EXTT6=
EXTT7=
EXTT8=
EXTT9=
EXTT10=
EXTT11=
PLAYORDER=
